<svg width="601" height="321" viewBox="0 0 601 321" fill="none" xmlns="http://www.w3.org/2000/svg">
<path d="M356 55.5C356 24.8258 331.178 0 300.5 0C269.826 0 245 24.8224 245 55.5C245 85.9024 269.615 111 300.5 111C331.258 111 356 86.0421 356 55.5ZM300.5 6.50391C327.517 6.50391 349.496 28.4834 349.496 55.5C349.496 65.3829 346.557 74.8821 341.105 82.9282C319.216 59.382 281.824 59.3397 259.895 82.9282C254.443 74.8821 251.504 65.3829 251.504 55.5C251.504 28.4834 273.483 6.50391 300.5 6.50391ZM263.951 88.1279C283.414 66.2975 317.591 66.3026 337.048 88.1279C317.52 109.975 283.487 109.982 263.951 88.1279Z" fill="#F8F9FB"/>
<path d="M300.5 58.752C311.259 58.752 320.012 49.9988 320.012 39.2402V32.7363C320.012 21.9778 311.259 13.2246 300.5 13.2246C289.741 13.2246 280.988 21.9778 280.988 32.7363V39.2402C280.988 49.9988 289.741 58.752 300.5 58.752ZM287.492 32.7363C287.492 25.5634 293.327 19.7285 300.5 19.7285C307.673 19.7285 313.508 25.5634 313.508 32.7363V39.2402C313.508 46.4132 307.673 52.248 300.5 52.248C293.327 52.248 287.492 46.4132 287.492 39.2402V32.7363Z" fill="#F8F9FB"/>
<path d="M1 320C1 320 90 172.5 139 172.5C188 172.5 246 312 300.5 312C355 312 397.5 172.5 454 172.5C510.5 172.5 600 312 600 312" stroke="#F8F9FB" stroke-width="2" stroke-linejoin="round"/>
<path d="M141.5 85C129.553 85 119.833 94.7199 119.833 106.667C119.833 110.253 120.73 113.809 122.435 116.963L140.315 149.302C140.553 149.733 141.007 150 141.5 150C141.993 150 142.447 149.733 142.685 149.302L160.572 116.952C162.27 113.809 163.167 110.253 163.167 106.667C163.167 94.7199 153.447 85 141.5 85ZM158.196 115.653L141.5 145.848L124.811 115.665C123.326 112.916 122.542 109.805 122.542 106.667C122.542 96.2129 131.046 87.7084 141.5 87.7084C151.954 87.7084 160.458 96.213 160.458 106.667C160.458 109.805 159.674 112.916 158.196 115.653Z" fill="#F8F9FB"/>
<path d="M141.5 95.8333C135.527 95.8333 130.667 100.693 130.667 106.667C130.667 112.64 135.527 117.5 141.5 117.5C147.473 117.5 152.333 112.64 152.333 106.667C152.333 100.693 147.473 95.8333 141.5 95.8333ZM141.5 114.792C137.02 114.792 133.375 111.147 133.375 106.667C133.375 102.186 137.02 98.5417 141.5 98.5417C145.98 98.5417 149.625 102.186 149.625 106.667C149.625 111.147 145.98 114.792 141.5 114.792Z" fill="#F8F9FB"/>
<path d="M459.5 85C447.553 85 437.833 94.7199 437.833 106.667C437.833 110.253 438.73 113.809 440.435 116.963L458.315 149.302C458.553 149.733 459.007 150 459.5 150C459.993 150 460.447 149.733 460.685 149.302L478.572 116.952C480.27 113.809 481.167 110.253 481.167 106.667C481.167 94.7199 471.447 85 459.5 85ZM476.196 115.653L459.5 145.848L442.811 115.665C441.326 112.916 440.542 109.805 440.542 106.667C440.542 96.2129 449.046 87.7084 459.5 87.7084C469.954 87.7084 478.458 96.213 478.458 106.667C478.458 109.805 477.674 112.916 476.196 115.653Z" fill="#F1692D"/>
<path d="M459.5 95.8333C453.527 95.8333 448.667 100.693 448.667 106.667C448.667 112.64 453.527 117.5 459.5 117.5C465.473 117.5 470.333 112.64 470.333 106.667C470.333 100.693 465.473 95.8333 459.5 95.8333ZM459.5 114.792C455.02 114.792 451.375 111.147 451.375 106.667C451.375 102.186 455.02 98.5417 459.5 98.5417C463.98 98.5417 467.625 102.186 467.625 106.667C467.625 111.147 463.98 114.792 459.5 114.792Z" fill="#F1692D"/>
<path d="M300.5 220C288.553 220 278.833 229.72 278.833 241.667C278.833 245.253 279.73 248.809 281.435 251.963L299.315 284.302C299.553 284.733 300.007 285 300.5 285C300.993 285 301.447 284.733 301.685 284.302L319.572 251.952C321.27 248.809 322.167 245.253 322.167 241.667C322.167 229.72 312.447 220 300.5 220ZM317.196 250.653L300.5 280.848L283.811 250.665C282.326 247.916 281.542 244.805 281.542 241.667C281.542 231.213 290.046 222.708 300.5 222.708C310.954 222.708 319.458 231.213 319.458 241.667C319.458 244.805 318.674 247.916 317.196 250.653Z" fill="#F8F9FB"/>
<path d="M300.5 230.833C294.527 230.833 289.667 235.693 289.667 241.667C289.667 247.64 294.527 252.5 300.5 252.5C306.473 252.5 311.333 247.64 311.333 241.667C311.333 235.693 306.473 230.833 300.5 230.833ZM300.5 249.792C296.02 249.792 292.375 246.147 292.375 241.667C292.375 237.186 296.02 233.542 300.5 233.542C304.98 233.542 308.625 237.186 308.625 241.667C308.625 246.147 304.98 249.792 300.5 249.792Z" fill="#F8F9FB"/>
</svg>
